<?xml version="1.0" encoding="UTF-8"?>
<svg xmlns="http://www.w3.org/2000/svg" version="1.1" viewBox="0 0 110.27 110.27">
  <!-- Generator: Adobe Illustrator 29.8.1, SVG Export Plug-In . SVG Version: 2.1.1 Build 2)  -->
  <defs>
    <style>
      .st0 {
        fill: #e3e3e3;
      }

      .st1 {
        display: none;
      }
    </style>
  </defs>
  <g id="profile" class="st1">
    <path class="st0" d="M37.02,68.72c-2.11,0-3.9-.73-5.36-2.19-1.46-1.46-2.19-3.24-2.19-5.36s.73-3.9,2.19-5.36c1.46-1.46,3.24-2.19,5.36-2.19s3.9.73,5.36,2.19c1.46,1.46,2.19,3.24,2.19,5.36s-.73,3.9-2.19,5.36c-1.46,1.46-3.24,2.19-5.36,2.19ZM73.24,68.72c-2.11,0-3.9-.73-5.36-2.19-1.46-1.46-2.19-3.24-2.19-5.36s.73-3.9,2.19-5.36,3.24-2.19,5.36-2.19,3.9.73,5.36,2.19,2.19,3.24,2.19,5.36-.73,3.9-2.19,5.36c-1.46,1.46-3.24,2.19-5.36,2.19ZM55.13,103.43c13.48,0,24.9-4.68,34.26-14.04,9.36-9.36,14.04-20.78,14.04-34.26,0-2.41-.15-4.75-.45-7.02s-.86-4.45-1.66-6.57c-2.11.5-4.23.88-6.34,1.13-2.11.25-4.33.38-6.64.38-9.16,0-17.81-1.96-25.96-5.89-8.15-3.92-15.09-9.41-20.83-16.45-3.22,7.85-7.82,14.66-13.81,20.45-5.99,5.79-12.95,10.14-20.9,13.05v.91c0,13.48,4.68,24.9,14.04,34.26,9.36,9.36,20.78,14.04,34.26,14.04ZM55.15,109.47c-7.51,0-14.58-1.43-21.19-4.28-6.61-2.85-12.37-6.72-17.26-11.61-4.89-4.89-8.77-10.64-11.62-17.24-2.85-6.61-4.28-13.67-4.28-21.18s1.43-14.58,4.28-21.19c2.85-6.61,6.72-12.37,11.61-17.26,4.89-4.89,10.64-8.77,17.24-11.62,6.61-2.85,13.67-4.28,21.18-4.28s14.58,1.43,21.19,4.28c6.61,2.85,12.37,6.72,17.26,11.61,4.89,4.89,8.77,10.64,11.62,17.24,2.85,6.61,4.28,13.67,4.28,21.18s-1.43,14.58-4.28,21.19c-2.85,6.61-6.72,12.37-11.61,17.26-4.89,4.89-10.64,8.77-17.24,11.62-6.61,2.85-13.67,4.28-21.18,4.28ZM41.3,8.75c4.92,9.83,11.88,17,20.86,21.51,8.99,4.51,17.71,6.76,26.18,6.76,1.87,0,3.72-.09,5.53-.28,1.81-.19,3.61-.5,5.41-.94-3.84-8.98-9.79-16.05-17.84-21.22-8.06-5.17-16.82-7.75-26.3-7.75-2.65,0-5.07.15-7.27.46-2.2.31-4.39.79-6.57,1.46ZM7.66,47.32c6.21-2.76,12.51-7.29,18.89-13.58,6.38-6.29,10.1-14.2,11.16-23.73-8.07,3.07-14.76,7.91-20.05,14.51-5.29,6.6-8.63,14.2-10,22.8Z"/>
  </g>
  <g id="locations" class="st1">
    <path class="st0" d="M72.7,102.77l-35.1-12.28c-.38-.13-.79-.13-1.16.02l-23.31,9.02c-1.55.57-2.98.41-4.31-.5-1.32-.91-1.98-2.19-1.98-3.84V21.35c0-1.08.26-2.06.78-2.95.52-.89,1.28-1.51,2.28-1.86l26.57-9.05c.36-.12.74-.12,1.1,0l35.09,12.28c.38.13.79.13,1.16-.02l23.31-9.02c1.55-.57,2.98-.46,4.31.33,1.32.79,1.98,1.98,1.98,3.55v74.76c0,1.15-.32,2.16-.96,3.01-.64.85-1.49,1.45-2.57,1.8l-26.11,8.6c-.35.12-.73.11-1.08-.01ZM70.23,93.23V26.16c0-.72-.45-1.35-1.13-1.59l-26.82-9.37c-1.09-.38-2.24.43-2.24,1.59v67.07c0,.72.45,1.35,1.13,1.59l26.82,9.37c1.09.38,2.24-.43,2.24-1.59ZM78.47,94.87l17.77-5.86c.69-.23,1.16-.87,1.16-1.6V19.52c0-1.17-1.17-1.99-2.27-1.58l-17.77,6.62c-.66.25-1.09.87-1.09,1.58v67.14c0,1.15,1.12,1.96,2.21,1.6ZM15.16,92.29l17.77-6.81c.65-.25,1.08-.87,1.08-1.57V16.78c0-1.15-1.13-1.96-2.22-1.59l-17.77,6.05c-.68.23-1.14.87-1.14,1.59v67.89c0,1.18,1.18,1.99,2.28,1.57ZM76.26,24.97v70.63V24.97ZM34,14.43v70.63V14.43Z"/>
  </g>
  <g id="new_x5F_comments" class="st1">
    <path class="st0" d="M49.39,59.73H1.15c-.63,0-1.15-.51-1.15-1.15v-6.89c0-.63.51-1.15,1.15-1.15h48.24c.63,0,1.15-.51,1.15-1.15V1.15c0-.63.51-1.15,1.15-1.15h6.89c.63,0,1.15.51,1.15,1.15v48.24c0,.63.51,1.15,1.15,1.15h48.24c.63,0,1.15.51,1.15,1.15v6.89c0,.63-.51,1.15-1.15,1.15h-48.24c-.63,0-1.15.51-1.15,1.15v48.24c0,.63-.51,1.15-1.15,1.15h-6.89c-.63,0-1.15-.51-1.15-1.15v-48.24c0-.63-.51-1.15-1.15-1.15Z"/>
  </g>
  <g id="artists" class="st1">
    <g>
      <path class="st0" d="M55.13,1.6C25.61,1.6,1.6,25.61,1.6,55.13s24.01,53.53,53.53,53.53,53.53-24.01,53.53-53.53S84.65,1.6,55.13,1.6ZM55.13,101.67c-25.66,0-46.53-20.88-46.53-46.53S29.47,8.6,55.13,8.6s46.53,20.88,46.53,46.53-20.88,46.53-46.53,46.53Z"/>
      <path class="st0" d="M55.13,32.95c-12.23,0-22.18,9.95-22.18,22.18s9.95,22.18,22.18,22.18,22.18-9.95,22.18-22.18-9.95-22.18-22.18-22.18ZM55.13,67.32c-6.72,0-12.18-5.46-12.18-12.18s5.46-12.18,12.18-12.18,12.18,5.46,12.18,12.18-5.46,12.18-12.18,12.18Z"/>
    </g>
  </g>
  <g id="home">
    <path class="st0" d="M71.32,103.25h23.95c1.08,0,1.95-.88,1.95-1.95v-60.21c0-.61-.29-1.19-.78-1.56L56.31,9.17c-.7-.53-1.66-.53-2.36,0L13.82,39.53c-.49.37-.78.95-.78,1.56v60.21c0,1.08.88,1.95,1.95,1.95h56.33ZM45.96,110.27H7.98c-1.08,0-1.95-.88-1.95-1.95V37.58c0-.61.29-1.19.78-1.56L53.96.4c.7-.53,1.66-.53,2.36,0l47.15,35.62c.49.37.78.95.78,1.56v70.73c0,1.08-.88,1.95-1.95,1.95h-56.33Z"/>
  </g>
</svg>